<svg xmlns="http://www.w3.org/2000/svg" xmlns:xlink="http://www.w3.org/1999/xlink" width="54" height="44" viewBox="0 0 54 44" class="waxom-counter__svg">
  <style>
    .waxom-counter__svg {
      fill: #c7b299;
    }
  </style>
  <path id="icon" class="cls-1" d="M1398.31,4921.61h-50.62a1.7,1.7,0,0,0,0,3.39h50.62A1.7,1.7,0,0,0,1398.31,4921.61Zm-23.62-33.84v-3.38h3.37a1.7,1.7,0,0,0,0-3.39h-10.12a1.7,1.7,0,0,0,0,3.39h3.37s-0.01,3.52,0,3.38a27.1,27.1,0,0,0-25.31,27.07v1.7a1.694,1.694,0,0,0,1.69,1.69h50.62a1.694,1.694,0,0,0,1.69-1.69v-1.7A27.1,27.1,0,0,0,1374.69,4887.77Zm-25.31,27.07a23.62,23.62,0,1,1,47.24,0h-47.24Z" transform="translate(-1346 -4881)"/>
</svg>
